<svg xmlns="http://www.w3.org/2000/svg" width="640" height="400" viewBox="0 0 640 400"><defs><linearGradient id="g" x1="0" y1="0" x2="1" y2="1"><stop offset="0" stop-color="#D97706"/><stop offset="1" stop-color="#F97316"/></linearGradient></defs><rect width="640" height="400" fill="url(#g)"/><circle cx="588.8000000000001" cy="32.0" r="168.0" fill="#ffffff" opacity="0.07"/><circle cx="38.4" cy="380.0" r="120.0" fill="#ffffff" opacity="0.06"/>
<g stroke="#ffffff" stroke-width="4" opacity="0.75">
  <line x1="160" y1="190" x2="310" y2="190"/>
  <line x1="330" y1="190" x2="480" y2="190"/>
  <line x1="320" y1="210" x2="320" y2="290"/>
  <line x1="320" y1="290" x2="470" y2="290"/>
</g>
<g fill="#0f2540" opacity="0.5">
  <rect x="70" y="120" width="180" height="140" rx="14"/>
  <rect x="390" y="120" width="180" height="140" rx="14"/>
  <rect x="240" y="290" width="160" height="80" rx="12"/>
</g>
<g fill="#ffffff">
  <circle cx="320" cy="190" r="16"/>
  <circle cx="160" cy="190" r="8"/><circle cx="480" cy="190" r="8"/>
  <rect x="245" y="300" width="26" height="26" rx="4"/>
</g>
<path d="M150 160 v60 M250 160 v60 M400 160 v60 M500 160 v60"
      stroke="#ffffff" stroke-width="3" opacity="0.4"/>
</svg>